<svg id="Layer_1" data-name="Layer 1" xmlns="http://www.w3.org/2000/svg" viewBox="0 0 16 16"><defs><style>.cls-1{fill:#183761;}</style></defs><title>file_type_locator</title><path class="cls-1" d="M2.36,5.11l5,2.66a1.84,1.84,0,0,0,1.34,0c.68-.29,5.19-2.66,5.19-2.66s.69-.58,0-1.06-5-2.78-5-2.78a1.43,1.43,0,0,0-1.51-.09c-1,.4-5.18,2.62-5.18,2.62S1.25,4.46,2.36,5.11Z"/><path class="cls-1" d="M13.89,7.39l-1.21-.63c-1.51.84-3.61,2-3.61,2a1.43,1.43,0,0,1-1.51.09c-.65-.27-2.71-1.33-4-2l-1.15.61C1.26,8,2.17,8.7,2.17,8.7s4.2,2.22,5.18,2.62a1.43,1.43,0,0,0,1.51-.09l1.2-.64L14,8.37C14.48,7.91,13.89,7.39,13.89,7.39Z"/><path class="cls-1" d="M13.89,10.88l-1.21-.63c-1.51.84-3.61,2-3.61,2a1.43,1.43,0,0,1-1.51.09c-.65-.27-2.71-1.33-4-2l-1.15.61c-1.11.65-.19,1.3-.19,1.3s4.2,2.22,5.18,2.62a1.43,1.43,0,0,0,1.51-.09l1.2-.64L14,11.85C14.48,11.39,13.89,10.88,13.89,10.88Z"/></svg>