<svg id="Layer_1" data-name="Layer 1" xmlns="http://www.w3.org/2000/svg" viewBox="0 0 16 16"><defs><style>.cls-1{fill:#183761;}.cls-2{fill:#fff;}</style></defs><title>file_type_feature</title><path class="cls-1" d="M12.61,5.12v9.12a1.69,1.69,0,0,1-1.69,1.69H3.32a1.69,1.69,0,0,1-1.69-1.69V3.94A1.69,1.69,0,0,1,3.32,2.25H9.45"/><path class="cls-1" d="M11.21.08H5.08A1.69,1.69,0,0,0,3.49,1.21H9.81l3.65,3.31v9.06a1.68,1.68,0,0,0,.92-1.5V3Z"/><rect class="cls-2" x="5.21" y="5.59" width="4.33" height="1.11"/><rect class="cls-2" x="3.01" y="5.59" width="1.24" height="1.11"/><rect class="cls-2" x="5.21" y="7.83" width="2.79" height="1.11"/><rect class="cls-2" x="3.01" y="7.83" width="1.24" height="1.11"/></svg>