<svg id="Layer_1" data-name="Layer 1" xmlns="http://www.w3.org/2000/svg" viewBox="0 0 16 16"><defs><style>.cls-1{fill:#57b552;}.cls-2{fill:#183761;}.cls-3{fill:#fff;}</style></defs><title>file_type_properties</title><path class="cls-1" d="M14.85.36H1.15A1.13,1.13,0,0,0,0,1.48V2.54H16V1.48A1.13,1.13,0,0,0,14.85.36Zm-13,1.7a.53.53,0,1,1,.53-.53A.53.53,0,0,1,1.89,2.06Zm1.89,0a.53.53,0,1,1,.53-.53A.53.53,0,0,1,3.78,2.06Z"/><rect class="cls-2" x="0.03" y="3.25" width="15.94" height="12.89"/><rect class="cls-3" x="2.22" y="7.09" width="1.77" height="1.77"/><rect class="cls-3" x="5.73" y="7.09" width="8.05" height="1.77"/><rect class="cls-3" x="2.22" y="10.59" width="1.77" height="1.77"/><rect class="cls-3" x="5.73" y="10.59" width="8.05" height="1.77"/></svg>