<svg id="Layer_1" data-name="Layer 1" xmlns="http://www.w3.org/2000/svg" viewBox="0 0 16 16"><defs><style>.cls-1{fill:#183761;}.cls-2{fill:#f1f0f0;}</style></defs><title>Artboard 32 copy 9</title><rect class="cls-1" x="1.85" y="0.39" width="12.3" height="15.22" rx="1.25" ry="1.25"/><path class="cls-2" d="M2.9,1.53H6.34a2.94,2.94,0,0,1,1.92.59,1.86,1.86,0,0,1-.85,3.3,2,2,0,0,1,1.27.66,1.93,1.93,0,0,1,.47,1.29,1.83,1.83,0,0,1-.69,1.5,3,3,0,0,1-1.93.56H2.9ZM4.83,3V4.7H6.09a1,1,0,0,0,.67-.21A.79.79,0,0,0,7,3.85a.8.8,0,0,0-.25-.64A1,1,0,0,0,6.09,3Zm0,5H6.28a.93.93,0,0,0,.65-.24.84.84,0,0,0,.26-.65.9.9,0,0,0-.25-.66.87.87,0,0,0-.64-.25H4.83Z"/></svg>