<?xml version="1.0" encoding="UTF-8"?>
<svg width="977px" height="234px" viewBox="0 0 977 234" version="1.1" xmlns="http://www.w3.org/2000/svg" xmlns:xlink="http://www.w3.org/1999/xlink">
    <!-- Generator: Sketch 52.5 (67469) - http://www.bohemiancoding.com/sketch -->
    <title>QMetry Automation Studio Logo</title>
    <desc>Created with Sketch.</desc>
    <g id="QMetry-Automation-Studio" stroke="none" stroke-width="1" fill="none" fill-rule="evenodd">
        <g id="QMetry-Automation-Studio-Logo-1024" transform="translate(-23.000000, -395.000000)">
            <g id="QMetry-Automation-Studio-Logo" transform="translate(23.000000, 395.000000)">
                <path d="M433.32107,203.40285 L436.468474,203.40285 L450.027554,233.346477 L446.41188,233.346477 L442.924249,225.489197 L426.717741,225.489197 L423.187429,233.346477 L419.741259,233.346477 L433.32107,203.40285 Z M441.613339,222.473161 L434.849042,207.310181 L428.043284,222.473161 L441.613339,222.473161 Z" id="Shape" fill="#003FB3" fill-rule="nonzero"></path>
                <path d="M454.365142,220.901218 L454.365142,203.611062 L457.724731,203.611062 L457.724731,220.685699 C457.724731,227.097668 461.128219,230.707902 466.827935,230.707902 C472.315466,230.707902 475.803097,227.394767 475.803097,220.896347 L475.803097,203.606192 L479.163905,203.606192 L479.163905,220.636995 C479.163905,229.302772 474.186105,233.804301 466.742574,233.804301 C459.384404,233.814041 454.365142,229.312513 454.365142,220.901218 Z" id="Path" fill="#003FB3"></path>
                <polygon id="Path" fill="#003FB3" points="494.97897 206.715984 484.979469 206.715984 484.979469 203.615933 508.375863 203.615933 508.375863 206.715984 498.376362 206.715984 498.376362 233.346477 494.972873 233.346477"></polygon>
                <path d="M511.308643,218.565829 L511.308643,218.480596 C511.225842,213.018888 514.091274,207.93477 518.809957,205.171064 C523.52864,202.407357 529.371298,202.391195 534.105244,205.128753 C538.839191,207.866311 541.732792,212.934498 541.680299,218.39658 L541.680299,218.480596 C541.76327,223.942268 538.898031,229.02645 534.179479,231.790315 C529.460928,234.554179 523.618309,234.570576 518.884273,231.833238 C514.150236,229.095901 511.25642,224.027881 511.308643,218.565829 Z M538.191449,218.565829 L538.191449,218.480596 C538.191449,211.727694 533.258768,206.207021 526.451791,206.207021 C519.644813,206.207021 514.797494,211.643679 514.797494,218.39658 L514.797494,218.480596 C514.797494,225.234715 519.730175,230.755389 526.537152,230.755389 C533.34413,230.755389 538.193888,225.318731 538.193888,218.565829 L538.191449,218.565829 Z" id="Shape" fill="#003FB3" fill-rule="nonzero"></path>
                <polygon id="Path" fill="#003FB3" points="548.776287 203.615933 552.179776 203.615933 563.025576 219.839456 573.872596 203.615933 577.276085 203.615933 577.276085 233.346477 573.915277 233.346477 573.915277 209.264456 563.070696 225.192098 562.901192 225.192098 552.048075 209.307073 552.048075 233.346477 548.773848 233.346477"></polygon>
                <path d="M596.706823,203.40285 L599.854227,203.40285 L613.423062,233.346477 L609.807389,233.346477 L606.320978,225.489197 L590.113249,225.489197 L586.582938,233.346477 L583.136768,233.346477 L596.706823,203.40285 Z M604.999092,222.473161 L598.234796,207.310181 L591.430257,222.473161 L604.999092,222.473161 Z" id="Shape" fill="#003FB3" fill-rule="nonzero"></path>
                <polygon id="Path" fill="#003FB3" points="623.327446 206.715984 613.327945 206.715984 613.327945 203.615933 636.725559 203.615933 636.725559 206.715984 626.726057 206.715984 626.726057 233.346477 623.323788 233.346477"></polygon>
                <polygon id="Path" fill="#003FB3" points="643.310596 203.615933 646.671404 203.615933 646.671404 233.346477 643.310596 233.346477"></polygon>
                <path d="M654.072254,218.565829 L654.072254,218.480596 C653.989453,213.018888 656.854885,207.93477 661.573568,205.171064 C666.292251,202.407357 672.134909,202.391195 676.868855,205.128753 C681.602802,207.866311 684.496403,212.934498 684.44391,218.39658 L684.44391,218.480596 C684.526881,223.942268 681.661642,229.02645 676.94309,231.790315 C672.224539,234.554179 666.38192,234.570576 661.647884,231.833238 C656.913847,229.095901 654.020031,224.027881 654.072254,218.565829 Z M680.95506,218.565829 L680.95506,218.480596 C680.95506,211.727694 676.022379,206.207021 669.215401,206.207021 C662.408424,206.207021 657.561105,211.643679 657.561105,218.39658 L657.561105,218.480596 C657.561105,225.234715 662.493786,230.755389 669.300763,230.755389 C676.107741,230.755389 680.95506,225.318731 680.95506,218.565829 Z" id="Shape" fill="#003FB3" fill-rule="nonzero"></path>
                <polygon id="Path" fill="#003FB3" points="691.539898 203.615933 694.688521 203.615933 713.447342 227.443472 713.447342 203.615933 716.721569 203.615933 716.721569 233.346477 714.038776 233.346477 694.810466 208.967358 694.810466 233.346477 691.539898 233.346477"></polygon>
                <path d="M735.937683,229.012979 L738.021726,226.548523 C740.716025,229.269869 744.398718,230.786496 748.230973,230.752953 C752.228334,230.752953 754.866007,228.62943 754.866007,225.699845 L754.866007,225.614611 C754.866007,222.853057 753.378277,221.282332 747.12493,219.966088 C740.277711,218.478161 737.125429,216.270622 737.125429,211.385544 L737.125429,211.301528 C737.125429,206.629534 741.250833,203.189767 746.909087,203.189767 C750.728002,203.080769 754.45313,204.381302 757.37198,206.842617 L755.420858,209.431269 C753.040585,207.354833 749.988124,206.208693 746.827384,206.204585 C742.956845,206.204585 740.486237,208.328109 740.486237,211.003212 L740.486237,211.088446 C740.486237,213.888964 742.017868,215.463342 748.567541,216.864819 C755.203796,218.308912 758.265838,220.730751 758.265838,225.273679 L758.265838,225.36013 C758.265838,230.455855 754.012392,233.76899 748.101711,233.76899 C743.582725,233.818927 739.221124,232.113586 735.937683,229.012979 Z" id="Path" fill="#003FB3"></path>
                <polygon id="Path" fill="#003FB3" points="772.341965 206.715984 762.342464 206.715984 762.342464 203.615933 785.742516 203.615933 785.742516 206.715984 775.743015 206.715984 775.743015 233.346477 772.338307 233.346477"></polygon>
                <path d="M791.562958,220.901218 L791.562958,203.611062 L794.923766,203.611062 L794.923766,220.685699 C794.923766,227.097668 798.327254,230.707902 804.02697,230.707902 C809.514501,230.707902 813.002132,227.394767 813.002132,220.896347 L813.002132,203.606192 L816.36294,203.606192 L816.36294,220.636995 C816.36294,229.302772 811.386359,233.804301 803.942828,233.804301 C796.583439,233.814041 791.562958,229.312513 791.562958,220.901218 Z" id="Path" fill="#003FB3"></path>
                <path d="M824.310105,203.615933 L834.642516,203.615933 C844.000586,203.615933 850.466117,210.029119 850.466117,218.39658 L850.466117,218.480596 C850.466117,226.848057 844.003025,233.346477 834.642516,233.346477 L824.306446,233.346477 L824.310105,203.615933 Z M834.646175,230.246425 C842.175067,230.246425 846.982145,225.149482 846.982145,218.565829 L846.982145,218.480596 C846.982145,211.898161 842.175067,206.715984 834.646175,206.715984 L827.670913,206.715984 L827.670913,230.246425 L834.646175,230.246425 Z" id="Shape" fill="#003FB3" fill-rule="nonzero"></path>
                <polygon id="Path" fill="#003FB3" points="857.863309 203.615933 861.226556 203.615933 861.226556 233.346477 857.865748 233.346477"></polygon>
                <path d="M868.623748,218.565829 L868.623748,218.480596 C868.562134,213.032943 871.432185,207.971023 876.142019,205.220592 C880.851852,202.470161 886.67742,202.454045 891.402445,205.178376 C896.127469,207.902707 899.025566,212.94867 898.994185,218.39658 L898.994185,218.480596 C899.055945,223.928199 896.186081,228.99016 891.476387,231.740735 C886.766694,234.491311 880.941183,234.50766 876.216078,231.783563 C871.490973,229.059465 868.592657,224.013693 868.623748,218.565829 Z M895.506554,218.565829 L895.506554,218.480596 C895.506554,211.727694 890.572653,206.207021 883.765676,206.207021 C876.958698,206.207021 872.111379,211.643679 872.111379,218.39658 L872.111379,218.480596 C872.111379,225.234715 877.045279,230.755389 883.851037,230.755389 C890.656796,230.755389 895.506554,225.318731 895.506554,218.565829 Z" id="Shape" fill="#003FB3" fill-rule="nonzero"></path>
                <polygon id="Path" fill="#003FB3" points="894.395633 125.028523 894.395633 179.185674 880.895087 179.185674 880.895087 125.196554"></polygon>
                <path d="M242.203773,120.533083 L242.203773,120.195803 C242.203773,87.6683938 266.678162,59.1871244 302.630027,59.1871244 C338.581893,59.1871244 362.714835,87.3323316 362.714835,119.858523 L362.714835,120.195803 C362.714835,152.723212 338.241666,181.205699 302.2898,181.205699 C266.337935,181.205699 242.203773,153.059275 242.203773,120.533083 Z M348.876501,120.533083 L348.876501,120.195803 C348.876501,93.3984974 329.298209,71.4911399 302.293459,71.4911399 C275.288708,71.4911399 256.044546,93.0624352 256.044546,119.859741 L256.044546,120.197021 C256.044546,146.993109 275.625277,168.901684 302.627589,168.901684 C329.6299,168.901684 348.876501,147.329171 348.876501,120.533083 Z" id="Shape" fill="#003FB3" fill-rule="nonzero"></path>
                <polygon id="Path" fill="#003FB3" points="523.908015 61.2095855 609.314731 61.2095855 609.314731 73.3443523 537.245155 73.3443523 537.245155 113.623109 601.721207 113.623109 601.721207 125.759093 537.242716 125.759093 537.242716 167.048472 610.158591 167.048472 610.158591 179.182021 523.908015 179.182021"></polygon>
                <polygon id="Path" fill="#003FB3" points="661.470666 73.5123834 621.805571 73.5123834 621.805571 61.214456 714.638746 61.214456 714.638746 73.5123834 674.972431 73.5123834 674.972431 179.182021 661.470666 179.182021"></polygon>
                <path d="M732.867105,61.2095855 L783.669449,61.2095855 C798.18092,61.2095855 809.831559,65.5930052 817.258017,73.0070725 C823.269338,79.24272 826.548993,87.6102332 826.373416,96.2635492 L826.373416,96.600829 C826.373416,116.150881 812.870431,127.611088 794.301845,130.982668 L830.591499,179.182021 L814.222803,179.182021 L779.956219,133.342409 L746.201805,133.342409 L746.201805,179.182021 L732.867105,179.182021 L732.867105,61.2095855 Z M782.490239,121.375674 C800.213746,121.375674 812.87287,112.275207 812.87287,97.1073575 L812.87287,96.7700777 C812.87287,82.2804404 801.731963,73.513601 782.658524,73.513601 L746.196928,73.513601 L746.196928,121.375674 L782.490239,121.375674 Z" id="Shape" fill="#003FB3" fill-rule="nonzero"></path>
                <polygon id="Path" fill="#0EDE00" points="880.895087 132.498601 831.776805 61.2095855 847.980875 61.2095855 887.810596 120.195803 965.977429 6.25733161 976.861032 12.9858808 887.914249 141.824326"></polygon>
                <polygon id="Path" fill="#003FB3" points="389.069618 227.135415 379.104262 233.954067 326.925157 164.507306 336.889294 157.68987"></polygon>
                <polygon id="Path" fill="#003FB3" points="483.736848 61.2095855 440.695092 125.589845 397.654556 61.2095855 384.151571 61.2095855 384.151571 181.161865 397.148484 200.098238 397.148484 83.7939378 440.18902 146.825078 440.864596 146.825078 483.905132 83.6246891 483.905132 179.183238 497.238613 179.183238 497.238613 61.2095855"></polygon>
                <path d="M0,76.7573316 C0,64.8246891 8.09715711,50.1706736 18.4490798,44.2031347 L87.1761397,4.47474093 C97.5280623,-1.49158031 114.376002,-1.49158031 124.735242,4.47474093 L194.146414,44.2031347 C204.497117,50.169456 213.467401,64.8234715 213.467401,76.7573316 L213.467401,156.209249 C213.467401,168.149197 204.449559,182.795907 194.098855,188.763446 L124.912062,228.490622 C114.56014,234.456943 97.4817232,234.456943 87.1298005,228.490622 L18.5210274,188.763446 C8.17032419,182.797124 0.00487780549,168.149197 0.00487780549,156.209249 L0,76.7573316 Z" id="Path" fill="#0EDE00"></path>
                <path d="M125.927865,99.9748446 C125.196578,99.9700837 124.504712,100.30537 124.056007,100.881969 L99.7889252,124.558523 L89.3589576,116.531995 C89.2323636,116.391613 89.09043,116.265821 88.935808,116.156969 L88.9236135,116.156969 C88.0726512,115.553798 86.9557945,115.474969 86.0283171,115.952616 C85.1008397,116.430264 84.5176645,117.384602 84.5165162,118.426606 C84.5074299,119.101454 84.7484721,119.755842 85.1933117,120.26399 L85.185995,120.26399 L97.5597681,134.085155 C98.0821308,134.795045 98.9097344,135.216719 99.7919435,135.222474 C100.674153,135.22823 101.507204,134.817391 102.038813,134.114378 L102.047349,134.088808 C102.106046,134.018986 102.158289,133.943999 102.203439,133.864767 L127.748506,103.760415 C127.821677,103.669963 127.886953,103.573418 127.943618,103.471839 L128.018005,103.367124 L127.998494,103.357383 C128.158276,103.040438 128.241787,102.690638 128.242384,102.335803 C128.252564,101.047125 127.218408,99.9922196 125.927865,99.9748446 Z" id="Path" fill="#FFFFFF"></path>
                <path d="M161.434631,125.675078 L176.702162,123.694016 L176.670456,108.864663 L161.249274,108.347176 C160.596056,104.23404 159.500761,100.20318 157.982364,96.3244301 L170.23907,86.7673575 L162.997968,73.9397668 L149.371818,81.4183679 C146.805731,78.2090722 143.89818,75.2875233 140.700299,72.7051036 L146.675611,58.102228 L134.16404,50.7137306 L125.999813,64.2049223 C122.213658,62.7407336 118.273759,61.7089393 114.255277,61.1292228 L112.326105,45.3890933 L105.441082,45.4037047 C65.8951967,45.9653606 34.1320595,78.1350355 34.1320595,117.625415 C34.1320595,157.115794 65.8951967,189.285468 105.441082,189.847124 L114.939389,189.827642 L115.443022,173.958446 C119.455131,173.286637 123.378528,172.165019 127.138781,170.61487 L136.440756,183.217202 L148.924279,175.771477 L141.649032,161.781062 C144.796268,159.126367 147.644623,156.137358 150.143731,152.866891 L164.334486,159.000026 L171.520713,146.143212 L158.427464,137.769663 C159.862593,133.857864 160.870817,129.802867 161.434631,125.675078 Z M105.443521,185.797332 C68.1417701,185.229774 38.2007365,154.874757 38.2007365,117.624806 C38.2007365,80.3748549 68.1417701,50.0198377 105.443521,49.4522798 L105.443521,60.1356477 C74.0453007,60.6944733 48.8848666,86.268847 48.8848666,117.624806 C48.8848666,148.980764 74.0453007,174.555138 105.443521,175.113964 L105.443521,185.797332 Z M105.443521,171.064171 C76.3294492,170.443579 53.052187,146.69987 53.052187,117.622979 C53.052187,88.546089 76.3294492,64.8023793 105.443521,64.1817876 L105.443521,75.5567617 L105.410596,75.5567617 C82.4949683,76.0491853 64.1755164,94.7389677 64.1755164,117.625415 C64.1755164,140.511861 82.4949683,159.201644 105.410596,159.694067 L105.449618,159.694067 L105.443521,171.064171 Z M106.410546,155.656451 C106.075197,155.656451 105.738628,155.656451 105.404499,155.643057 C84.759166,155.10842 68.3012799,138.243572 68.3012799,117.62237 C68.3012799,97.0011689 84.759166,80.1363214 105.404499,79.6016839 C105.738628,79.5907254 106.075197,79.5907254 106.410546,79.5907254 C120.070199,79.5135528 132.725439,86.7456503 139.577674,98.5447638 C146.429909,110.343877 146.429909,124.903299 139.577674,136.702412 C132.725439,148.501526 120.070199,155.733623 106.410546,155.656451 Z" id="Shape" fill="#FFFFFF" fill-rule="nonzero"></path>
            </g>
        </g>
    </g>
</svg>