<svg xmlns="http://www.w3.org/2000/svg" xmlns:xlink="http://www.w3.org/1999/xlink" version="1.1" id="Layer_1" x="0px" y="0px" width="200px" height="209.2962952px" viewBox="0 0 185 209.2962952" style="enable-background:new 0 0 200.3739624 209.2962952;" xml:space="preserve">
<g>
	
	
	
	
	
	
	
	
	<path style="fill:#56B753;" d="M0,75.6390991c0-10.171402,6.8901-22.6591988,15.6991997-27.7455978l58.4862938-33.8594017   c8.8091049-5.0853996,23.1464996-5.0853996,31.9580994,0l59.068306,33.8594017   c8.8085938,5.0863991,16.4423981,17.5741959,16.4423981,27.7455978v67.7149048   c0,10.1756897-7.6743011,22.6591034-16.4829102,27.7451019l-58.8769913,33.8583984   c-8.8089981,5.0868988-23.3426971,5.0868988-32.152298,0l-58.3852997-33.8583984   C6.9478002,166.0131073,0,153.5296936,0,143.3540039V75.6390991z"/>
	<g>
		<path style="fill:#FFFFFF;" d="M108.301796,94.4492035c-0.6484985-0.0039062-1.2192993,0.2982941-1.5938034,0.7728958    l-20.6635971,20.1933975l-8.8827972-6.8456955c-0.1083984-0.1186981-0.2265015-0.2256012-0.3598022-0.3189011    l-0.0102997-0.0044022c-0.3867035-0.2738953-0.8490982-0.4300995-1.3529968-0.4384003    c-1.3173981-0.0034943-2.3931046,1.0600052-2.4009018,2.3735046c-0.0088043,0.5971985,0.2124023,1.1464996,0.5766983,1.567894    h-0.0058975l10.5375977,11.7871017c0.4341049,0.5810013,1.1176987,0.9618988,1.9028015,0.9707031    c0.7813034,0.0038986,1.4731979-0.3692017,1.9112015-0.9453049h0.0043945l0.0073013-0.0214996    c0.0498047-0.0606003,0.096199-0.1259995,0.1328049-0.1913986l21.7538986-25.6753006    c0.0634995-0.0780945,0.1210938-0.1641006,0.1660004-0.2461014l0.0634995-0.0893936l-0.0161057-0.0088043    c0.132309-0.2616959,0.2104034-0.5560989,0.2124023-0.8711014    C110.2929993,95.357399,109.4027939,94.4570007,108.301796,94.4492035z"/>
		<path style="fill:#FFFFFF;" d="M138.5394897,116.3685989l13.0015106-1.6903992l-0.026413-12.6470032l-13.1327972-0.4418945    c-0.566391-3.5634995-1.509201-6.9976044-2.782196-10.2538986l10.4380035-8.1509018l-6.1665039-10.9409027l-11.6039886,6.3788986    c-2.1909103-2.7411957-4.6690063-5.2372971-7.3848114-7.4310989l5.0899048-12.4550972l-10.6548004-6.3013l-6.9522018,11.5063972    c-3.1855011-1.2319984-6.5340958-2.1240997-10.0018997-2.6231003l-1.6430969-13.4247971l-5.8628006,0.0121994l0,0    c-33.573204,0.4623985-60.7470016,27.9141006-60.7470016,61.5967026c0,33.6796951,27.1737957,61.135704,60.7470016,61.5967026l0,0    l0,0l8.0888977-0.0157013l0.4291992-13.5351105c3.4618988-0.5820007,6.7968979-1.5439911,9.9598999-2.851593l7.9208984,10.7480927    l10.6308975-6.3506012l-6.1947937-11.9316864c2.6708984-2.2539062,5.0985947-4.8076019,7.233902-7.6025085l12.082489,5.2304993    l6.1195984-10.9657898l-11.1498871-7.1416092C137.1831055,123.3989029,138.0507965,119.9438019,138.5394897,116.3685989z     M90.857399,167.6459045c-31.671402-0.4580078-57.2949028-26.3623047-57.2949028-58.1435013    c0-31.7759018,25.6235008-57.6851044,57.2949028-58.1431046v9.1118011    c-26.6421051,0.4628983-48.1787033,22.280304-48.1787033,49.0313034s21.5365982,48.573204,48.1787033,49.0311966V167.6459045z     M90.857399,155.0834045c-24.743103-0.4570007-44.7270012-20.7285004-44.7270012-45.5810013    c0-24.8491058,19.9838982-45.1191025,44.7270012-45.5776024v9.7010994c-0.0112,0-0.0210037,0-0.0332031,0    c-19.3935013,0.455101-35.033699,16.375-35.033699,35.876503c0,19.5048904,15.6401978,35.4227982,35.033699,35.8798904    c0.0121994,0,0.0220032,0,0.0332031,0V155.0834045z M91.6811981,141.941803c-0.2862015,0-0.5727997-0.0039062-0.8570023-0.0117035    c-17.4922028-0.4550934-31.5844994-14.8291016-31.5844994-32.4276962c0-17.6030045,14.0922966-31.972702,31.5844994-32.4268036    c0.2842026-0.0087967,0.5708008-0.0087967,0.8570023-0.0087967c17.8866959,0,32.4393997,14.5463943,32.4393997,32.4356003    C124.1205978,127.3871994,109.567894,141.941803,91.6811981,141.941803z"/>
	</g>
</g>
</svg>